<?xml version="1.0" encoding="utf-8" standalone="no"?>
<!DOCTYPE svg PUBLIC "-//W3C//DTD SVG 1.1//EN"
  "http://www.w3.org/Graphics/SVG/1.1/DTD/svg11.dtd">
<svg xmlns:xlink="http://www.w3.org/1999/xlink" width="432pt" height="288pt" viewBox="0 0 432 288" xmlns="http://www.w3.org/2000/svg" version="1.1">
 <metadata>
  <rdf:RDF xmlns:dc="http://purl.org/dc/elements/1.1/" xmlns:cc="http://creativecommons.org/ns#" xmlns:rdf="http://www.w3.org/1999/02/22-rdf-syntax-ns#">
   <cc:Work>
    <dc:type rdf:resource="http://purl.org/dc/dcmitype/StillImage"/>
    <dc:date>2022-06-10T11:55:07.392682</dc:date>
    <dc:format>image/svg+xml</dc:format>
    <dc:creator>
     <cc:Agent>
      <dc:title>Matplotlib v3.5.2, https://matplotlib.org/</dc:title>
     </cc:Agent>
    </dc:creator>
   </cc:Work>
  </rdf:RDF>
 </metadata>
 <defs>
  <style type="text/css">*{stroke-linejoin: round; stroke-linecap: butt}</style>
 </defs>
 <g id="figure_1">
  <g id="patch_1">
   <path d="M 0 288 
L 432 288 
L 432 0 
L 0 0 
L 0 288 
z
" style="fill: none"/>
  </g>
  <g id="axes_1">
   <g id="patch_2">
    <path d="M 54 252 
L 388.8 252 
L 388.8 34.56 
L 54 34.56 
z
" style="fill: #ffffff"/>
   </g>
   <g id="matplotlib.axis_1">
    <g id="xtick_1">
     <g id="line2d_1">
      <defs>
       <path id="m4b33b2690a" d="M 0 0 
L 0 3.5 
" style="stroke: #000000; stroke-width: 0.8"/>
      </defs>
      <g>
       <use xlink:href="#m4b33b2690a" x="88.854545" y="252" style="stroke: #000000; stroke-width: 0.8"/>
      </g>
     </g>
     <g id="text_1">
      <!-- 1990 -->
      <g transform="translate(76.129545 266.598437)scale(0.1 -0.1)">
       <defs>
        <path id="DejaVuSans-31" d="M 794 531 
L 1825 531 
L 1825 4091 
L 703 3866 
L 703 4441 
L 1819 4666 
L 2450 4666 
L 2450 531 
L 3481 531 
L 3481 0 
L 794 0 
L 794 531 
z
" transform="scale(0.015625)"/>
        <path id="DejaVuSans-39" d="M 703 97 
L 703 672 
Q 941 559 1184 500 
Q 1428 441 1663 441 
Q 2288 441 2617 861 
Q 2947 1281 2994 2138 
Q 2813 1869 2534 1725 
Q 2256 1581 1919 1581 
Q 1219 1581 811 2004 
Q 403 2428 403 3163 
Q 403 3881 828 4315 
Q 1253 4750 1959 4750 
Q 2769 4750 3195 4129 
Q 3622 3509 3622 2328 
Q 3622 1225 3098 567 
Q 2575 -91 1691 -91 
Q 1453 -91 1209 -44 
Q 966 3 703 97 
z
M 1959 2075 
Q 2384 2075 2632 2365 
Q 2881 2656 2881 3163 
Q 2881 3666 2632 3958 
Q 2384 4250 1959 4250 
Q 1534 4250 1286 3958 
Q 1038 3666 1038 3163 
Q 1038 2656 1286 2365 
Q 1534 2075 1959 2075 
z
" transform="scale(0.015625)"/>
        <path id="DejaVuSans-30" d="M 2034 4250 
Q 1547 4250 1301 3770 
Q 1056 3291 1056 2328 
Q 1056 1369 1301 889 
Q 1547 409 2034 409 
Q 2525 409 2770 889 
Q 3016 1369 3016 2328 
Q 3016 3291 2770 3770 
Q 2525 4250 2034 4250 
z
M 2034 4750 
Q 2819 4750 3233 4129 
Q 3647 3509 3647 2328 
Q 3647 1150 3233 529 
Q 2819 -91 2034 -91 
Q 1250 -91 836 529 
Q 422 1150 422 2328 
Q 422 3509 836 4129 
Q 1250 4750 2034 4750 
z
" transform="scale(0.015625)"/>
       </defs>
       <use xlink:href="#DejaVuSans-31"/>
       <use xlink:href="#DejaVuSans-39" x="63.623047"/>
       <use xlink:href="#DejaVuSans-39" x="127.246094"/>
       <use xlink:href="#DejaVuSans-30" x="190.869141"/>
      </g>
     </g>
    </g>
    <g id="xtick_2">
     <g id="line2d_2">
      <g>
       <use xlink:href="#m4b33b2690a" x="137.945455" y="252" style="stroke: #000000; stroke-width: 0.8"/>
      </g>
     </g>
     <g id="text_2">
      <!-- 1995 -->
      <g transform="translate(125.220455 266.598437)scale(0.1 -0.1)">
       <defs>
        <path id="DejaVuSans-35" d="M 691 4666 
L 3169 4666 
L 3169 4134 
L 1269 4134 
L 1269 2991 
Q 1406 3038 1543 3061 
Q 1681 3084 1819 3084 
Q 2600 3084 3056 2656 
Q 3513 2228 3513 1497 
Q 3513 744 3044 326 
Q 2575 -91 1722 -91 
Q 1428 -91 1123 -41 
Q 819 9 494 109 
L 494 744 
Q 775 591 1075 516 
Q 1375 441 1709 441 
Q 2250 441 2565 725 
Q 2881 1009 2881 1497 
Q 2881 1984 2565 2268 
Q 2250 2553 1709 2553 
Q 1456 2553 1204 2497 
Q 953 2441 691 2322 
L 691 4666 
z
" transform="scale(0.015625)"/>
       </defs>
       <use xlink:href="#DejaVuSans-31"/>
       <use xlink:href="#DejaVuSans-39" x="63.623047"/>
       <use xlink:href="#DejaVuSans-39" x="127.246094"/>
       <use xlink:href="#DejaVuSans-35" x="190.869141"/>
      </g>
     </g>
    </g>
    <g id="xtick_3">
     <g id="line2d_3">
      <g>
       <use xlink:href="#m4b33b2690a" x="187.036364" y="252" style="stroke: #000000; stroke-width: 0.8"/>
      </g>
     </g>
     <g id="text_3">
      <!-- 2000 -->
      <g transform="translate(174.311364 266.598437)scale(0.1 -0.1)">
       <defs>
        <path id="DejaVuSans-32" d="M 1228 531 
L 3431 531 
L 3431 0 
L 469 0 
L 469 531 
Q 828 903 1448 1529 
Q 2069 2156 2228 2338 
Q 2531 2678 2651 2914 
Q 2772 3150 2772 3378 
Q 2772 3750 2511 3984 
Q 2250 4219 1831 4219 
Q 1534 4219 1204 4116 
Q 875 4013 500 3803 
L 500 4441 
Q 881 4594 1212 4672 
Q 1544 4750 1819 4750 
Q 2544 4750 2975 4387 
Q 3406 4025 3406 3419 
Q 3406 3131 3298 2873 
Q 3191 2616 2906 2266 
Q 2828 2175 2409 1742 
Q 1991 1309 1228 531 
z
" transform="scale(0.015625)"/>
       </defs>
       <use xlink:href="#DejaVuSans-32"/>
       <use xlink:href="#DejaVuSans-30" x="63.623047"/>
       <use xlink:href="#DejaVuSans-30" x="127.246094"/>
       <use xlink:href="#DejaVuSans-30" x="190.869141"/>
      </g>
     </g>
    </g>
    <g id="xtick_4">
     <g id="line2d_4">
      <g>
       <use xlink:href="#m4b33b2690a" x="236.127273" y="252" style="stroke: #000000; stroke-width: 0.8"/>
      </g>
     </g>
     <g id="text_4">
      <!-- 2005 -->
      <g transform="translate(223.402273 266.598437)scale(0.1 -0.1)">
       <use xlink:href="#DejaVuSans-32"/>
       <use xlink:href="#DejaVuSans-30" x="63.623047"/>
       <use xlink:href="#DejaVuSans-30" x="127.246094"/>
       <use xlink:href="#DejaVuSans-35" x="190.869141"/>
      </g>
     </g>
    </g>
    <g id="xtick_5">
     <g id="line2d_5">
      <g>
       <use xlink:href="#m4b33b2690a" x="285.218182" y="252" style="stroke: #000000; stroke-width: 0.8"/>
      </g>
     </g>
     <g id="text_5">
      <!-- 2010 -->
      <g transform="translate(272.493182 266.598437)scale(0.1 -0.1)">
       <use xlink:href="#DejaVuSans-32"/>
       <use xlink:href="#DejaVuSans-30" x="63.623047"/>
       <use xlink:href="#DejaVuSans-31" x="127.246094"/>
       <use xlink:href="#DejaVuSans-30" x="190.869141"/>
      </g>
     </g>
    </g>
    <g id="xtick_6">
     <g id="line2d_6">
      <g>
       <use xlink:href="#m4b33b2690a" x="334.309091" y="252" style="stroke: #000000; stroke-width: 0.8"/>
      </g>
     </g>
     <g id="text_6">
      <!-- 2015 -->
      <g transform="translate(321.584091 266.598437)scale(0.1 -0.1)">
       <use xlink:href="#DejaVuSans-32"/>
       <use xlink:href="#DejaVuSans-30" x="63.623047"/>
       <use xlink:href="#DejaVuSans-31" x="127.246094"/>
       <use xlink:href="#DejaVuSans-35" x="190.869141"/>
      </g>
     </g>
    </g>
    <g id="xtick_7">
     <g id="line2d_7">
      <g>
       <use xlink:href="#m4b33b2690a" x="383.4" y="252" style="stroke: #000000; stroke-width: 0.8"/>
      </g>
     </g>
     <g id="text_7">
      <!-- 2020 -->
      <g transform="translate(370.675 266.598437)scale(0.1 -0.1)">
       <use xlink:href="#DejaVuSans-32"/>
       <use xlink:href="#DejaVuSans-30" x="63.623047"/>
       <use xlink:href="#DejaVuSans-32" x="127.246094"/>
       <use xlink:href="#DejaVuSans-30" x="190.869141"/>
      </g>
     </g>
    </g>
   </g>
   <g id="matplotlib.axis_2">
    <g id="ytick_1">
     <g id="line2d_8">
      <defs>
       <path id="mf6d597a6bc" d="M 0 0 
L -3.5 0 
" style="stroke: #000000; stroke-width: 0.8"/>
      </defs>
      <g>
       <use xlink:href="#mf6d597a6bc" x="54" y="228.732273" style="stroke: #000000; stroke-width: 0.8"/>
      </g>
     </g>
     <g id="text_8">
      <!-- 0.02 -->
      <g transform="translate(24.734375 232.531491)scale(0.1 -0.1)">
       <defs>
        <path id="DejaVuSans-2e" d="M 684 794 
L 1344 794 
L 1344 0 
L 684 0 
L 684 794 
z
" transform="scale(0.015625)"/>
       </defs>
       <use xlink:href="#DejaVuSans-30"/>
       <use xlink:href="#DejaVuSans-2e" x="63.623047"/>
       <use xlink:href="#DejaVuSans-30" x="95.410156"/>
       <use xlink:href="#DejaVuSans-32" x="159.033203"/>
      </g>
     </g>
    </g>
    <g id="ytick_2">
     <g id="line2d_9">
      <g>
       <use xlink:href="#mf6d597a6bc" x="54" y="199.316688" style="stroke: #000000; stroke-width: 0.8"/>
      </g>
     </g>
     <g id="text_9">
      <!-- 0.04 -->
      <g transform="translate(24.734375 203.115907)scale(0.1 -0.1)">
       <defs>
        <path id="DejaVuSans-34" d="M 2419 4116 
L 825 1625 
L 2419 1625 
L 2419 4116 
z
M 2253 4666 
L 3047 4666 
L 3047 1625 
L 3713 1625 
L 3713 1100 
L 3047 1100 
L 3047 0 
L 2419 0 
L 2419 1100 
L 313 1100 
L 313 1709 
L 2253 4666 
z
" transform="scale(0.015625)"/>
       </defs>
       <use xlink:href="#DejaVuSans-30"/>
       <use xlink:href="#DejaVuSans-2e" x="63.623047"/>
       <use xlink:href="#DejaVuSans-30" x="95.410156"/>
       <use xlink:href="#DejaVuSans-34" x="159.033203"/>
      </g>
     </g>
    </g>
    <g id="ytick_3">
     <g id="line2d_10">
      <g>
       <use xlink:href="#mf6d597a6bc" x="54" y="169.901104" style="stroke: #000000; stroke-width: 0.8"/>
      </g>
     </g>
     <g id="text_10">
      <!-- 0.06 -->
      <g transform="translate(24.734375 173.700323)scale(0.1 -0.1)">
       <defs>
        <path id="DejaVuSans-36" d="M 2113 2584 
Q 1688 2584 1439 2293 
Q 1191 2003 1191 1497 
Q 1191 994 1439 701 
Q 1688 409 2113 409 
Q 2538 409 2786 701 
Q 3034 994 3034 1497 
Q 3034 2003 2786 2293 
Q 2538 2584 2113 2584 
z
M 3366 4563 
L 3366 3988 
Q 3128 4100 2886 4159 
Q 2644 4219 2406 4219 
Q 1781 4219 1451 3797 
Q 1122 3375 1075 2522 
Q 1259 2794 1537 2939 
Q 1816 3084 2150 3084 
Q 2853 3084 3261 2657 
Q 3669 2231 3669 1497 
Q 3669 778 3244 343 
Q 2819 -91 2113 -91 
Q 1303 -91 875 529 
Q 447 1150 447 2328 
Q 447 3434 972 4092 
Q 1497 4750 2381 4750 
Q 2619 4750 2861 4703 
Q 3103 4656 3366 4563 
z
" transform="scale(0.015625)"/>
       </defs>
       <use xlink:href="#DejaVuSans-30"/>
       <use xlink:href="#DejaVuSans-2e" x="63.623047"/>
       <use xlink:href="#DejaVuSans-30" x="95.410156"/>
       <use xlink:href="#DejaVuSans-36" x="159.033203"/>
      </g>
     </g>
    </g>
    <g id="ytick_4">
     <g id="line2d_11">
      <g>
       <use xlink:href="#mf6d597a6bc" x="54" y="140.485519" style="stroke: #000000; stroke-width: 0.8"/>
      </g>
     </g>
     <g id="text_11">
      <!-- 0.08 -->
      <g transform="translate(24.734375 144.284738)scale(0.1 -0.1)">
       <defs>
        <path id="DejaVuSans-38" d="M 2034 2216 
Q 1584 2216 1326 1975 
Q 1069 1734 1069 1313 
Q 1069 891 1326 650 
Q 1584 409 2034 409 
Q 2484 409 2743 651 
Q 3003 894 3003 1313 
Q 3003 1734 2745 1975 
Q 2488 2216 2034 2216 
z
M 1403 2484 
Q 997 2584 770 2862 
Q 544 3141 544 3541 
Q 544 4100 942 4425 
Q 1341 4750 2034 4750 
Q 2731 4750 3128 4425 
Q 3525 4100 3525 3541 
Q 3525 3141 3298 2862 
Q 3072 2584 2669 2484 
Q 3125 2378 3379 2068 
Q 3634 1759 3634 1313 
Q 3634 634 3220 271 
Q 2806 -91 2034 -91 
Q 1263 -91 848 271 
Q 434 634 434 1313 
Q 434 1759 690 2068 
Q 947 2378 1403 2484 
z
M 1172 3481 
Q 1172 3119 1398 2916 
Q 1625 2713 2034 2713 
Q 2441 2713 2670 2916 
Q 2900 3119 2900 3481 
Q 2900 3844 2670 4047 
Q 2441 4250 2034 4250 
Q 1625 4250 1398 4047 
Q 1172 3844 1172 3481 
z
" transform="scale(0.015625)"/>
       </defs>
       <use xlink:href="#DejaVuSans-30"/>
       <use xlink:href="#DejaVuSans-2e" x="63.623047"/>
       <use xlink:href="#DejaVuSans-30" x="95.410156"/>
       <use xlink:href="#DejaVuSans-38" x="159.033203"/>
      </g>
     </g>
    </g>
    <g id="ytick_5">
     <g id="line2d_12">
      <g>
       <use xlink:href="#mf6d597a6bc" x="54" y="111.069935" style="stroke: #000000; stroke-width: 0.8"/>
      </g>
     </g>
     <g id="text_12">
      <!-- 0.10 -->
      <g transform="translate(24.734375 114.869154)scale(0.1 -0.1)">
       <use xlink:href="#DejaVuSans-30"/>
       <use xlink:href="#DejaVuSans-2e" x="63.623047"/>
       <use xlink:href="#DejaVuSans-31" x="95.410156"/>
       <use xlink:href="#DejaVuSans-30" x="159.033203"/>
      </g>
     </g>
    </g>
    <g id="ytick_6">
     <g id="line2d_13">
      <g>
       <use xlink:href="#mf6d597a6bc" x="54" y="81.654351" style="stroke: #000000; stroke-width: 0.8"/>
      </g>
     </g>
     <g id="text_13">
      <!-- 0.12 -->
      <g transform="translate(24.734375 85.453569)scale(0.1 -0.1)">
       <use xlink:href="#DejaVuSans-30"/>
       <use xlink:href="#DejaVuSans-2e" x="63.623047"/>
       <use xlink:href="#DejaVuSans-31" x="95.410156"/>
       <use xlink:href="#DejaVuSans-32" x="159.033203"/>
      </g>
     </g>
    </g>
    <g id="ytick_7">
     <g id="line2d_14">
      <g>
       <use xlink:href="#mf6d597a6bc" x="54" y="52.238766" style="stroke: #000000; stroke-width: 0.8"/>
      </g>
     </g>
     <g id="text_14">
      <!-- 0.14 -->
      <g transform="translate(24.734375 56.037985)scale(0.1 -0.1)">
       <use xlink:href="#DejaVuSans-30"/>
       <use xlink:href="#DejaVuSans-2e" x="63.623047"/>
       <use xlink:href="#DejaVuSans-31" x="95.410156"/>
       <use xlink:href="#DejaVuSans-34" x="159.033203"/>
      </g>
     </g>
    </g>
   </g>
   <g id="line2d_15">
    <path d="M 285.218182 153.281299 
L 295.036364 205.199805 
L 314.672727 198.287143 
L 324.490909 191.227403 
L 373.581818 227.996883 
" clip-path="url(#p0641ba75ae)" style="fill: none; stroke: #1f77b4; stroke-width: 1.5; stroke-linecap: square"/>
    <defs>
     <path id="m993b9abbd5" d="M 0 3 
C 0.795609 3 1.55874 2.683901 2.12132 2.12132 
C 2.683901 1.55874 3 0.795609 3 0 
C 3 -0.795609 2.683901 -1.55874 2.12132 -2.12132 
C 1.55874 -2.683901 0.795609 -3 0 -3 
C -0.795609 -3 -1.55874 -2.683901 -2.12132 -2.12132 
C -2.683901 -1.55874 -3 -0.795609 -3 0 
C -3 0.795609 -2.683901 1.55874 -2.12132 2.12132 
C -1.55874 2.683901 -0.795609 3 0 3 
z
" style="stroke: #1f77b4"/>
    </defs>
    <g clip-path="url(#p0641ba75ae)">
     <use xlink:href="#m993b9abbd5" x="285.218182" y="153.281299" style="fill: #1f77b4; stroke: #1f77b4"/>
     <use xlink:href="#m993b9abbd5" x="295.036364" y="205.199805" style="fill: #1f77b4; stroke: #1f77b4"/>
     <use xlink:href="#m993b9abbd5" x="314.672727" y="198.287143" style="fill: #1f77b4; stroke: #1f77b4"/>
     <use xlink:href="#m993b9abbd5" x="324.490909" y="191.227403" style="fill: #1f77b4; stroke: #1f77b4"/>
     <use xlink:href="#m993b9abbd5" x="373.581818" y="227.996883" style="fill: #1f77b4; stroke: #1f77b4"/>
    </g>
   </g>
   <g id="line2d_16">
    <path d="M 69.218182 100.333247 
L 79.036364 121.953701 
L 88.854545 195.933896 
L 98.672727 199.463766 
L 108.490909 242.116364 
L 118.309091 190.197857 
L 128.127273 171.960195 
L 137.945455 185.785519 
L 147.763636 150.633896 
L 147.763636 150.633896 
L 147.763636 150.633896 
L 157.581818 117.835519 
L 157.581818 117.835519 
L 157.581818 117.835519 
L 167.4 86.949156 
L 167.4 86.949156 
L 167.4 86.949156 
L 177.218182 94.891364 
L 177.218182 94.891364 
L 177.218182 94.891364 
L 187.036364 112.981948 
L 187.036364 112.981948 
L 187.036364 112.981948 
L 196.854545 187.697532 
L 196.854545 187.697532 
L 196.854545 187.697532 
L 206.672727 191.521558 
L 206.672727 191.521558 
L 206.672727 191.521558 
L 216.490909 190.639091 
L 216.490909 190.639091 
L 216.490909 190.639091 
L 226.309091 113.864416 
L 226.309091 113.864416 
L 226.309091 113.864416 
L 236.127273 49.738442 
L 236.127273 49.738442 
L 236.127273 49.738442 
L 245.945455 62.681299 
L 245.945455 62.681299 
L 245.945455 62.681299 
L 255.763636 44.443636 
L 255.763636 44.443636 
L 255.763636 44.443636 
L 265.581818 60.916364 
L 265.581818 60.916364 
L 275.4 59.886818 
L 275.4 59.886818 
L 285.218182 53.856623 
L 285.218182 53.856623 
L 295.036364 57.974805 
L 295.036364 57.974805 
" clip-path="url(#p0641ba75ae)" style="fill: none; stroke: #ff7f0e; stroke-width: 1.5; stroke-linecap: square"/>
    <defs>
     <path id="m08e7b306c4" d="M 0 3 
C 0.795609 3 1.55874 2.683901 2.12132 2.12132 
C 2.683901 1.55874 3 0.795609 3 0 
C 3 -0.795609 2.683901 -1.55874 2.12132 -2.12132 
C 1.55874 -2.683901 0.795609 -3 0 -3 
C -0.795609 -3 -1.55874 -2.683901 -2.12132 -2.12132 
C -2.683901 -1.55874 -3 -0.795609 -3 0 
C -3 0.795609 -2.683901 1.55874 -2.12132 2.12132 
C -1.55874 2.683901 -0.795609 3 0 3 
z
" style="stroke: #ff7f0e"/>
    </defs>
    <g clip-path="url(#p0641ba75ae)">
     <use xlink:href="#m08e7b306c4" x="69.218182" y="100.333247" style="fill: #ff7f0e; stroke: #ff7f0e"/>
     <use xlink:href="#m08e7b306c4" x="79.036364" y="121.953701" style="fill: #ff7f0e; stroke: #ff7f0e"/>
     <use xlink:href="#m08e7b306c4" x="88.854545" y="195.933896" style="fill: #ff7f0e; stroke: #ff7f0e"/>
     <use xlink:href="#m08e7b306c4" x="98.672727" y="199.463766" style="fill: #ff7f0e; stroke: #ff7f0e"/>
     <use xlink:href="#m08e7b306c4" x="108.490909" y="242.116364" style="fill: #ff7f0e; stroke: #ff7f0e"/>
     <use xlink:href="#m08e7b306c4" x="118.309091" y="190.197857" style="fill: #ff7f0e; stroke: #ff7f0e"/>
     <use xlink:href="#m08e7b306c4" x="128.127273" y="171.960195" style="fill: #ff7f0e; stroke: #ff7f0e"/>
     <use xlink:href="#m08e7b306c4" x="137.945455" y="185.785519" style="fill: #ff7f0e; stroke: #ff7f0e"/>
     <use xlink:href="#m08e7b306c4" x="147.763636" y="150.633896" style="fill: #ff7f0e; stroke: #ff7f0e"/>
     <use xlink:href="#m08e7b306c4" x="147.763636" y="150.633896" style="fill: #ff7f0e; stroke: #ff7f0e"/>
     <use xlink:href="#m08e7b306c4" x="147.763636" y="150.633896" style="fill: #ff7f0e; stroke: #ff7f0e"/>
     <use xlink:href="#m08e7b306c4" x="157.581818" y="117.835519" style="fill: #ff7f0e; stroke: #ff7f0e"/>
     <use xlink:href="#m08e7b306c4" x="157.581818" y="117.835519" style="fill: #ff7f0e; stroke: #ff7f0e"/>
     <use xlink:href="#m08e7b306c4" x="157.581818" y="117.835519" style="fill: #ff7f0e; stroke: #ff7f0e"/>
     <use xlink:href="#m08e7b306c4" x="167.4" y="86.949156" style="fill: #ff7f0e; stroke: #ff7f0e"/>
     <use xlink:href="#m08e7b306c4" x="167.4" y="86.949156" style="fill: #ff7f0e; stroke: #ff7f0e"/>
     <use xlink:href="#m08e7b306c4" x="167.4" y="86.949156" style="fill: #ff7f0e; stroke: #ff7f0e"/>
     <use xlink:href="#m08e7b306c4" x="177.218182" y="94.891364" style="fill: #ff7f0e; stroke: #ff7f0e"/>
     <use xlink:href="#m08e7b306c4" x="177.218182" y="94.891364" style="fill: #ff7f0e; stroke: #ff7f0e"/>
     <use xlink:href="#m08e7b306c4" x="177.218182" y="94.891364" style="fill: #ff7f0e; stroke: #ff7f0e"/>
     <use xlink:href="#m08e7b306c4" x="187.036364" y="112.981948" style="fill: #ff7f0e; stroke: #ff7f0e"/>
     <use xlink:href="#m08e7b306c4" x="187.036364" y="112.981948" style="fill: #ff7f0e; stroke: #ff7f0e"/>
     <use xlink:href="#m08e7b306c4" x="187.036364" y="112.981948" style="fill: #ff7f0e; stroke: #ff7f0e"/>
     <use xlink:href="#m08e7b306c4" x="196.854545" y="187.697532" style="fill: #ff7f0e; stroke: #ff7f0e"/>
     <use xlink:href="#m08e7b306c4" x="196.854545" y="187.697532" style="fill: #ff7f0e; stroke: #ff7f0e"/>
     <use xlink:href="#m08e7b306c4" x="196.854545" y="187.697532" style="fill: #ff7f0e; stroke: #ff7f0e"/>
     <use xlink:href="#m08e7b306c4" x="206.672727" y="191.521558" style="fill: #ff7f0e; stroke: #ff7f0e"/>
     <use xlink:href="#m08e7b306c4" x="206.672727" y="191.521558" style="fill: #ff7f0e; stroke: #ff7f0e"/>
     <use xlink:href="#m08e7b306c4" x="206.672727" y="191.521558" style="fill: #ff7f0e; stroke: #ff7f0e"/>
     <use xlink:href="#m08e7b306c4" x="216.490909" y="190.639091" style="fill: #ff7f0e; stroke: #ff7f0e"/>
     <use xlink:href="#m08e7b306c4" x="216.490909" y="190.639091" style="fill: #ff7f0e; stroke: #ff7f0e"/>
     <use xlink:href="#m08e7b306c4" x="216.490909" y="190.639091" style="fill: #ff7f0e; stroke: #ff7f0e"/>
     <use xlink:href="#m08e7b306c4" x="226.309091" y="113.864416" style="fill: #ff7f0e; stroke: #ff7f0e"/>
     <use xlink:href="#m08e7b306c4" x="226.309091" y="113.864416" style="fill: #ff7f0e; stroke: #ff7f0e"/>
     <use xlink:href="#m08e7b306c4" x="226.309091" y="113.864416" style="fill: #ff7f0e; stroke: #ff7f0e"/>
     <use xlink:href="#m08e7b306c4" x="236.127273" y="49.738442" style="fill: #ff7f0e; stroke: #ff7f0e"/>
     <use xlink:href="#m08e7b306c4" x="236.127273" y="49.738442" style="fill: #ff7f0e; stroke: #ff7f0e"/>
     <use xlink:href="#m08e7b306c4" x="236.127273" y="49.738442" style="fill: #ff7f0e; stroke: #ff7f0e"/>
     <use xlink:href="#m08e7b306c4" x="245.945455" y="62.681299" style="fill: #ff7f0e; stroke: #ff7f0e"/>
     <use xlink:href="#m08e7b306c4" x="245.945455" y="62.681299" style="fill: #ff7f0e; stroke: #ff7f0e"/>
     <use xlink:href="#m08e7b306c4" x="245.945455" y="62.681299" style="fill: #ff7f0e; stroke: #ff7f0e"/>
     <use xlink:href="#m08e7b306c4" x="255.763636" y="44.443636" style="fill: #ff7f0e; stroke: #ff7f0e"/>
     <use xlink:href="#m08e7b306c4" x="255.763636" y="44.443636" style="fill: #ff7f0e; stroke: #ff7f0e"/>
     <use xlink:href="#m08e7b306c4" x="255.763636" y="44.443636" style="fill: #ff7f0e; stroke: #ff7f0e"/>
     <use xlink:href="#m08e7b306c4" x="265.581818" y="60.916364" style="fill: #ff7f0e; stroke: #ff7f0e"/>
     <use xlink:href="#m08e7b306c4" x="265.581818" y="60.916364" style="fill: #ff7f0e; stroke: #ff7f0e"/>
     <use xlink:href="#m08e7b306c4" x="275.4" y="59.886818" style="fill: #ff7f0e; stroke: #ff7f0e"/>
     <use xlink:href="#m08e7b306c4" x="275.4" y="59.886818" style="fill: #ff7f0e; stroke: #ff7f0e"/>
     <use xlink:href="#m08e7b306c4" x="285.218182" y="53.856623" style="fill: #ff7f0e; stroke: #ff7f0e"/>
     <use xlink:href="#m08e7b306c4" x="285.218182" y="53.856623" style="fill: #ff7f0e; stroke: #ff7f0e"/>
     <use xlink:href="#m08e7b306c4" x="295.036364" y="57.974805" style="fill: #ff7f0e; stroke: #ff7f0e"/>
     <use xlink:href="#m08e7b306c4" x="295.036364" y="57.974805" style="fill: #ff7f0e; stroke: #ff7f0e"/>
    </g>
   </g>
   <g id="line2d_17">
    <path d="M 285.218182 175.784221 
L 285.218182 175.784221 
L 295.036364 162.547208 
L 295.036364 162.547208 
" clip-path="url(#p0641ba75ae)" style="fill: none; stroke: #2ca02c; stroke-width: 1.5; stroke-linecap: square"/>
    <defs>
     <path id="m52112a8f85" d="M 0 3 
C 0.795609 3 1.55874 2.683901 2.12132 2.12132 
C 2.683901 1.55874 3 0.795609 3 0 
C 3 -0.795609 2.683901 -1.55874 2.12132 -2.12132 
C 1.55874 -2.683901 0.795609 -3 0 -3 
C -0.795609 -3 -1.55874 -2.683901 -2.12132 -2.12132 
C -2.683901 -1.55874 -3 -0.795609 -3 0 
C -3 0.795609 -2.683901 1.55874 -2.12132 2.12132 
C -1.55874 2.683901 -0.795609 3 0 3 
z
" style="stroke: #2ca02c"/>
    </defs>
    <g clip-path="url(#p0641ba75ae)">
     <use xlink:href="#m52112a8f85" x="285.218182" y="175.784221" style="fill: #2ca02c; stroke: #2ca02c"/>
     <use xlink:href="#m52112a8f85" x="285.218182" y="175.784221" style="fill: #2ca02c; stroke: #2ca02c"/>
     <use xlink:href="#m52112a8f85" x="295.036364" y="162.547208" style="fill: #2ca02c; stroke: #2ca02c"/>
     <use xlink:href="#m52112a8f85" x="295.036364" y="162.547208" style="fill: #2ca02c; stroke: #2ca02c"/>
    </g>
   </g>
   <g id="patch_3">
    <path d="M 54 252 
L 54 34.56 
" style="fill: none; stroke: #000000; stroke-width: 0.8; stroke-linejoin: miter; stroke-linecap: square"/>
   </g>
   <g id="patch_4">
    <path d="M 388.8 252 
L 388.8 34.56 
" style="fill: none; stroke: #000000; stroke-width: 0.8; stroke-linejoin: miter; stroke-linecap: square"/>
   </g>
   <g id="patch_5">
    <path d="M 54 252 
L 388.8 252 
" style="fill: none; stroke: #000000; stroke-width: 0.8; stroke-linejoin: miter; stroke-linecap: square"/>
   </g>
   <g id="patch_6">
    <path d="M 54 34.56 
L 388.8 34.56 
" style="fill: none; stroke: #000000; stroke-width: 0.8; stroke-linejoin: miter; stroke-linecap: square"/>
   </g>
   <g id="legend_1">
    <g id="patch_7">
     <path d="M 61 86.594375 
L 160.13125 86.594375 
Q 162.13125 86.594375 162.13125 84.594375 
L 162.13125 41.56 
Q 162.13125 39.56 160.13125 39.56 
L 61 39.56 
Q 59 39.56 59 41.56 
L 59 84.594375 
Q 59 86.594375 61 86.594375 
z
" style="fill: #ffffff; opacity: 0.8; stroke: #cccccc; stroke-linejoin: miter"/>
    </g>
    <g id="line2d_18">
     <path d="M 63 47.658438 
L 73 47.658438 
L 83 47.658438 
" style="fill: none; stroke: #1f77b4; stroke-width: 1.5; stroke-linecap: square"/>
     <g>
      <use xlink:href="#m993b9abbd5" x="73" y="47.658438" style="fill: #1f77b4; stroke: #1f77b4"/>
     </g>
    </g>
    <g id="text_15">
     <!-- Ford vs. Tesla -->
     <g transform="translate(91 51.158438)scale(0.1 -0.1)">
      <defs>
       <path id="DejaVuSans-46" d="M 628 4666 
L 3309 4666 
L 3309 4134 
L 1259 4134 
L 1259 2759 
L 3109 2759 
L 3109 2228 
L 1259 2228 
L 1259 0 
L 628 0 
L 628 4666 
z
" transform="scale(0.015625)"/>
       <path id="DejaVuSans-6f" d="M 1959 3097 
Q 1497 3097 1228 2736 
Q 959 2375 959 1747 
Q 959 1119 1226 758 
Q 1494 397 1959 397 
Q 2419 397 2687 759 
Q 2956 1122 2956 1747 
Q 2956 2369 2687 2733 
Q 2419 3097 1959 3097 
z
M 1959 3584 
Q 2709 3584 3137 3096 
Q 3566 2609 3566 1747 
Q 3566 888 3137 398 
Q 2709 -91 1959 -91 
Q 1206 -91 779 398 
Q 353 888 353 1747 
Q 353 2609 779 3096 
Q 1206 3584 1959 3584 
z
" transform="scale(0.015625)"/>
       <path id="DejaVuSans-72" d="M 2631 2963 
Q 2534 3019 2420 3045 
Q 2306 3072 2169 3072 
Q 1681 3072 1420 2755 
Q 1159 2438 1159 1844 
L 1159 0 
L 581 0 
L 581 3500 
L 1159 3500 
L 1159 2956 
Q 1341 3275 1631 3429 
Q 1922 3584 2338 3584 
Q 2397 3584 2469 3576 
Q 2541 3569 2628 3553 
L 2631 2963 
z
" transform="scale(0.015625)"/>
       <path id="DejaVuSans-64" d="M 2906 2969 
L 2906 4863 
L 3481 4863 
L 3481 0 
L 2906 0 
L 2906 525 
Q 2725 213 2448 61 
Q 2172 -91 1784 -91 
Q 1150 -91 751 415 
Q 353 922 353 1747 
Q 353 2572 751 3078 
Q 1150 3584 1784 3584 
Q 2172 3584 2448 3432 
Q 2725 3281 2906 2969 
z
M 947 1747 
Q 947 1113 1208 752 
Q 1469 391 1925 391 
Q 2381 391 2643 752 
Q 2906 1113 2906 1747 
Q 2906 2381 2643 2742 
Q 2381 3103 1925 3103 
Q 1469 3103 1208 2742 
Q 947 2381 947 1747 
z
" transform="scale(0.015625)"/>
       <path id="DejaVuSans-20" transform="scale(0.015625)"/>
       <path id="DejaVuSans-76" d="M 191 3500 
L 800 3500 
L 1894 563 
L 2988 3500 
L 3597 3500 
L 2284 0 
L 1503 0 
L 191 3500 
z
" transform="scale(0.015625)"/>
       <path id="DejaVuSans-73" d="M 2834 3397 
L 2834 2853 
Q 2591 2978 2328 3040 
Q 2066 3103 1784 3103 
Q 1356 3103 1142 2972 
Q 928 2841 928 2578 
Q 928 2378 1081 2264 
Q 1234 2150 1697 2047 
L 1894 2003 
Q 2506 1872 2764 1633 
Q 3022 1394 3022 966 
Q 3022 478 2636 193 
Q 2250 -91 1575 -91 
Q 1294 -91 989 -36 
Q 684 19 347 128 
L 347 722 
Q 666 556 975 473 
Q 1284 391 1588 391 
Q 1994 391 2212 530 
Q 2431 669 2431 922 
Q 2431 1156 2273 1281 
Q 2116 1406 1581 1522 
L 1381 1569 
Q 847 1681 609 1914 
Q 372 2147 372 2553 
Q 372 3047 722 3315 
Q 1072 3584 1716 3584 
Q 2034 3584 2315 3537 
Q 2597 3491 2834 3397 
z
" transform="scale(0.015625)"/>
       <path id="DejaVuSans-54" d="M -19 4666 
L 3928 4666 
L 3928 4134 
L 2272 4134 
L 2272 0 
L 1638 0 
L 1638 4134 
L -19 4134 
L -19 4666 
z
" transform="scale(0.015625)"/>
       <path id="DejaVuSans-65" d="M 3597 1894 
L 3597 1613 
L 953 1613 
Q 991 1019 1311 708 
Q 1631 397 2203 397 
Q 2534 397 2845 478 
Q 3156 559 3463 722 
L 3463 178 
Q 3153 47 2828 -22 
Q 2503 -91 2169 -91 
Q 1331 -91 842 396 
Q 353 884 353 1716 
Q 353 2575 817 3079 
Q 1281 3584 2069 3584 
Q 2775 3584 3186 3129 
Q 3597 2675 3597 1894 
z
M 3022 2063 
Q 3016 2534 2758 2815 
Q 2500 3097 2075 3097 
Q 1594 3097 1305 2825 
Q 1016 2553 972 2059 
L 3022 2063 
z
" transform="scale(0.015625)"/>
       <path id="DejaVuSans-6c" d="M 603 4863 
L 1178 4863 
L 1178 0 
L 603 0 
L 603 4863 
z
" transform="scale(0.015625)"/>
       <path id="DejaVuSans-61" d="M 2194 1759 
Q 1497 1759 1228 1600 
Q 959 1441 959 1056 
Q 959 750 1161 570 
Q 1363 391 1709 391 
Q 2188 391 2477 730 
Q 2766 1069 2766 1631 
L 2766 1759 
L 2194 1759 
z
M 3341 1997 
L 3341 0 
L 2766 0 
L 2766 531 
Q 2569 213 2275 61 
Q 1981 -91 1556 -91 
Q 1019 -91 701 211 
Q 384 513 384 1019 
Q 384 1609 779 1909 
Q 1175 2209 1959 2209 
L 2766 2209 
L 2766 2266 
Q 2766 2663 2505 2880 
Q 2244 3097 1772 3097 
Q 1472 3097 1187 3025 
Q 903 2953 641 2809 
L 641 3341 
Q 956 3463 1253 3523 
Q 1550 3584 1831 3584 
Q 2591 3584 2966 3190 
Q 3341 2797 3341 1997 
z
" transform="scale(0.015625)"/>
      </defs>
      <use xlink:href="#DejaVuSans-46"/>
      <use xlink:href="#DejaVuSans-6f" x="53.894531"/>
      <use xlink:href="#DejaVuSans-72" x="115.076172"/>
      <use xlink:href="#DejaVuSans-64" x="154.439453"/>
      <use xlink:href="#DejaVuSans-20" x="217.916016"/>
      <use xlink:href="#DejaVuSans-76" x="249.703125"/>
      <use xlink:href="#DejaVuSans-73" x="308.882812"/>
      <use xlink:href="#DejaVuSans-2e" x="360.982422"/>
      <use xlink:href="#DejaVuSans-20" x="392.769531"/>
      <use xlink:href="#DejaVuSans-54" x="424.556641"/>
      <use xlink:href="#DejaVuSans-65" x="468.640625"/>
      <use xlink:href="#DejaVuSans-73" x="530.164062"/>
      <use xlink:href="#DejaVuSans-6c" x="582.263672"/>
      <use xlink:href="#DejaVuSans-61" x="610.046875"/>
     </g>
    </g>
    <g id="line2d_19">
     <path d="M 63 62.336563 
L 73 62.336563 
L 83 62.336563 
" style="fill: none; stroke: #ff7f0e; stroke-width: 1.5; stroke-linecap: square"/>
     <g>
      <use xlink:href="#m08e7b306c4" x="73" y="62.336563" style="fill: #ff7f0e; stroke: #ff7f0e"/>
     </g>
    </g>
    <g id="text_16">
     <!-- Ford vs. GM -->
     <g transform="translate(91 65.836563)scale(0.1 -0.1)">
      <defs>
       <path id="DejaVuSans-47" d="M 3809 666 
L 3809 1919 
L 2778 1919 
L 2778 2438 
L 4434 2438 
L 4434 434 
Q 4069 175 3628 42 
Q 3188 -91 2688 -91 
Q 1594 -91 976 548 
Q 359 1188 359 2328 
Q 359 3472 976 4111 
Q 1594 4750 2688 4750 
Q 3144 4750 3555 4637 
Q 3966 4525 4313 4306 
L 4313 3634 
Q 3963 3931 3569 4081 
Q 3175 4231 2741 4231 
Q 1884 4231 1454 3753 
Q 1025 3275 1025 2328 
Q 1025 1384 1454 906 
Q 1884 428 2741 428 
Q 3075 428 3337 486 
Q 3600 544 3809 666 
z
" transform="scale(0.015625)"/>
       <path id="DejaVuSans-4d" d="M 628 4666 
L 1569 4666 
L 2759 1491 
L 3956 4666 
L 4897 4666 
L 4897 0 
L 4281 0 
L 4281 4097 
L 3078 897 
L 2444 897 
L 1241 4097 
L 1241 0 
L 628 0 
L 628 4666 
z
" transform="scale(0.015625)"/>
      </defs>
      <use xlink:href="#DejaVuSans-46"/>
      <use xlink:href="#DejaVuSans-6f" x="53.894531"/>
      <use xlink:href="#DejaVuSans-72" x="115.076172"/>
      <use xlink:href="#DejaVuSans-64" x="154.439453"/>
      <use xlink:href="#DejaVuSans-20" x="217.916016"/>
      <use xlink:href="#DejaVuSans-76" x="249.703125"/>
      <use xlink:href="#DejaVuSans-73" x="308.882812"/>
      <use xlink:href="#DejaVuSans-2e" x="360.982422"/>
      <use xlink:href="#DejaVuSans-20" x="392.769531"/>
      <use xlink:href="#DejaVuSans-47" x="424.556641"/>
      <use xlink:href="#DejaVuSans-4d" x="502.046875"/>
     </g>
    </g>
    <g id="line2d_20">
     <path d="M 63 77.014688 
L 73 77.014688 
L 83 77.014688 
" style="fill: none; stroke: #2ca02c; stroke-width: 1.5; stroke-linecap: square"/>
     <g>
      <use xlink:href="#m52112a8f85" x="73" y="77.014688" style="fill: #2ca02c; stroke: #2ca02c"/>
     </g>
    </g>
    <g id="text_17">
     <!-- Tesla vs. GM -->
     <g transform="translate(91 80.514688)scale(0.1 -0.1)">
      <use xlink:href="#DejaVuSans-54"/>
      <use xlink:href="#DejaVuSans-65" x="44.083984"/>
      <use xlink:href="#DejaVuSans-73" x="105.607422"/>
      <use xlink:href="#DejaVuSans-6c" x="157.707031"/>
      <use xlink:href="#DejaVuSans-61" x="185.490234"/>
      <use xlink:href="#DejaVuSans-20" x="246.769531"/>
      <use xlink:href="#DejaVuSans-76" x="278.556641"/>
      <use xlink:href="#DejaVuSans-73" x="337.736328"/>
      <use xlink:href="#DejaVuSans-2e" x="389.835938"/>
      <use xlink:href="#DejaVuSans-20" x="421.623047"/>
      <use xlink:href="#DejaVuSans-47" x="453.410156"/>
      <use xlink:href="#DejaVuSans-4d" x="530.900391"/>
     </g>
    </g>
   </g>
  </g>
 </g>
 <defs>
  <clipPath id="p0641ba75ae">
   <rect x="54" y="34.56" width="334.8" height="217.44"/>
  </clipPath>
 </defs>
</svg>
